<mxfile host="app.diagrams.net" modified="2020-03-31T10:21:37.166Z" agent="5.0 (Windows NT 6.1; Win64; x64) AppleWebKit/537.36 (KHTML, like Gecko) Chrome/80.0.3987.149 Safari/537.36" etag="Qb_QwvJxkM-Y2ZgCqce8" version="12.9.5" type="github">
  <diagram id="yQyXxIAacO9TKyfwx4gt" name="Page-1">
    <mxGraphModel dx="1102" dy="533" grid="1" gridSize="10" guides="1" tooltips="1" connect="1" arrows="1" fold="1" page="1" pageScale="1" pageWidth="850" pageHeight="1100" math="0" shadow="0">
      <root>
        <mxCell id="0" />
        <mxCell id="1" parent="0" />
        <mxCell id="PMxI-jCJ59bQRrJ_PagE-6" value="" style="edgeStyle=orthogonalEdgeStyle;rounded=0;orthogonalLoop=1;jettySize=auto;html=1;" edge="1" parent="1" source="PMxI-jCJ59bQRrJ_PagE-1" target="PMxI-jCJ59bQRrJ_PagE-2">
          <mxGeometry relative="1" as="geometry" />
        </mxCell>
        <mxCell id="PMxI-jCJ59bQRrJ_PagE-1" value="Helm Library Chart" style="rounded=1;whiteSpace=wrap;html=1;fillColor=#dae8fc;strokeColor=#6c8ebf;" vertex="1" parent="1">
          <mxGeometry x="80" y="160" width="80" height="40" as="geometry" />
        </mxCell>
        <mxCell id="PMxI-jCJ59bQRrJ_PagE-7" style="edgeStyle=orthogonalEdgeStyle;rounded=0;orthogonalLoop=1;jettySize=auto;html=1;entryX=0;entryY=0.5;entryDx=0;entryDy=0;" edge="1" parent="1" source="PMxI-jCJ59bQRrJ_PagE-2" target="PMxI-jCJ59bQRrJ_PagE-3">
          <mxGeometry relative="1" as="geometry" />
        </mxCell>
        <mxCell id="PMxI-jCJ59bQRrJ_PagE-8" style="edgeStyle=orthogonalEdgeStyle;rounded=0;orthogonalLoop=1;jettySize=auto;html=1;entryX=0;entryY=0.5;entryDx=0;entryDy=0;" edge="1" parent="1" source="PMxI-jCJ59bQRrJ_PagE-2" target="PMxI-jCJ59bQRrJ_PagE-5">
          <mxGeometry relative="1" as="geometry" />
        </mxCell>
        <mxCell id="PMxI-jCJ59bQRrJ_PagE-9" style="edgeStyle=orthogonalEdgeStyle;rounded=0;orthogonalLoop=1;jettySize=auto;html=1;entryX=0;entryY=0.5;entryDx=0;entryDy=0;" edge="1" parent="1" source="PMxI-jCJ59bQRrJ_PagE-2" target="PMxI-jCJ59bQRrJ_PagE-4">
          <mxGeometry relative="1" as="geometry" />
        </mxCell>
        <mxCell id="PMxI-jCJ59bQRrJ_PagE-2" value="Helm Repository" style="rounded=1;whiteSpace=wrap;html=1;fillColor=#dae8fc;strokeColor=#6c8ebf;" vertex="1" parent="1">
          <mxGeometry x="80" y="280" width="80" height="40" as="geometry" />
        </mxCell>
        <mxCell id="PMxI-jCJ59bQRrJ_PagE-3" value="Service 1&lt;br&gt;Helm Chart" style="rounded=1;whiteSpace=wrap;html=1;fillColor=#dae8fc;strokeColor=#6c8ebf;" vertex="1" parent="1">
          <mxGeometry x="280" y="200" width="80" height="40" as="geometry" />
        </mxCell>
        <mxCell id="PMxI-jCJ59bQRrJ_PagE-4" value="Service 3&lt;br&gt;Helm Chart" style="rounded=1;whiteSpace=wrap;html=1;fillColor=#dae8fc;strokeColor=#6c8ebf;" vertex="1" parent="1">
          <mxGeometry x="280" y="360" width="80" height="40" as="geometry" />
        </mxCell>
        <mxCell id="PMxI-jCJ59bQRrJ_PagE-5" value="Service 2 Helm Chart" style="rounded=1;whiteSpace=wrap;html=1;fillColor=#dae8fc;strokeColor=#6c8ebf;" vertex="1" parent="1">
          <mxGeometry x="280" y="280" width="80" height="40" as="geometry" />
        </mxCell>
      </root>
    </mxGraphModel>
  </diagram>
</mxfile>
